<svg width="22" height="22" viewBox="0 0 22 22" fill="none" xmlns="http://www.w3.org/2000/svg">
<g clip-path="url(#clip0_68_416)">
<path d="M10.5079 14.4516C9.82938 14.4516 9.15084 14.2265 8.57233 13.7756L0 7.10718V16.4186C0 17.5067 0.882091 18.3888 1.97023 18.3888H19.0456C20.1337 18.3888 21.0158 17.5067 21.0158 16.4186V7.10718L12.4435 13.7756C11.865 14.2265 11.1865 14.4516 10.5079 14.4516ZM0.668525 5.96424L9.37787 12.7391C10.0425 13.2562 10.9733 13.2562 11.638 12.7391L20.3473 5.96424C20.7691 5.63612 21.0158 5.13161 21.0158 4.59719C21.0158 3.50904 20.1337 2.62695 19.0456 2.62695H1.97023C0.882091 2.62695 0 3.50904 0 4.59719C0 5.13161 0.24669 5.63612 0.668525 5.96424Z" fill="white"/>
</g>
<defs>
<clipPath id="clip0_68_416">
<rect width="21.0158" height="21.0158" fill="white"/>
</clipPath>
</defs>
</svg>
