<svg width="37" height="40" viewBox="0 0 37 40" fill="none" xmlns="http://www.w3.org/2000/svg">
<g clip-path="url(#clip0_175_462)">
<path d="M30.125 21.8748H7.625C6.59375 21.8748 5.75 22.7186 5.75 23.7498C5.75 24.7811 6.59375 25.6248 7.625 25.6248H30.125C31.1562 25.6248 32 24.7811 32 23.7498C32 22.7186 31.1562 21.8748 30.125 21.8748ZM30.125 14.3748H7.625C6.59375 14.3748 5.75 15.2186 5.75 16.2498C5.75 17.2811 6.59375 18.1248 7.625 18.1248H30.125C31.1562 18.1248 32 17.2811 32 16.2498C32 15.2186 31.1562 14.3748 30.125 14.3748Z" fill="#2D3E50"/>
</g>
<defs>
<clipPath id="clip0_175_462">
<rect width="26.25" height="30" fill="white" transform="translate(5.75 5)"/>
</clipPath>
</defs>
</svg>
