<svg width="400" height="400" viewBox="0 0 400 400" fill="none" xmlns="http://www.w3.org/2000/svg">
<rect width="400" height="400" rx="200" fill="white"/>
<path d="M65.4542 239.383L166.662 157.693H65.4542V239.383Z" fill="#5882BF"/>
<path d="M65.4542 157.693L166.662 76.0018H65.4542V157.693Z" fill="#5882BF"/>
<path d="M179.662 323.998V78.1564H209.711L211.252 101.134C216.981 92.7616 224.436 86.4825 233.646 82.281C242.841 78.0949 252.868 76.0018 263.696 76.0018C279.853 76.0018 293.145 79.6339 303.572 86.8826C313.999 94.1314 321.762 104.043 326.876 116.601C331.989 129.159 334.546 143.21 334.546 158.739C334.546 174.268 331.943 188.873 326.722 201.339C321.5 213.805 313.537 223.608 302.802 230.765C292.067 237.921 278.513 241.492 262.171 241.492C254.393 241.492 247.293 240.676 240.855 239.045C234.416 237.413 228.795 235.013 223.989 231.842C219.184 228.672 214.948 224.947 211.267 220.654V298.497L179.677 323.998H179.662ZM258.182 213.312C269.225 213.312 278.005 210.819 284.55 205.802C291.096 200.8 295.794 194.213 298.659 186.041C301.524 177.869 302.956 168.989 302.956 159.385C302.956 149.782 301.477 140.225 298.505 131.96C295.532 123.68 290.727 117.047 284.088 112.045C277.435 107.044 268.594 104.535 257.566 104.535C247.539 104.535 239.052 107.044 232.106 112.045C225.16 117.047 219.892 123.742 216.319 132.114C212.746 140.486 210.959 149.582 210.959 159.385C210.959 169.189 212.653 178.546 216.026 186.811C219.399 195.075 224.621 201.57 231.675 206.264C238.729 210.973 247.57 213.312 258.197 213.312H258.182Z" fill="#2C3E50"/>
</svg>
