<svg width="30" height="30" viewBox="0 0 30 30" fill="none" xmlns="http://www.w3.org/2000/svg">
<g clip-path="url(#clip0_317_92)">
<path d="M23.5312 6.125H21.1875V4.5625C21.1875 3.70312 20.4844 3 19.625 3C18.7656 3 18.0625 3.70312 18.0625 4.5625V6.125H11.8125V4.5625C11.8125 3.70312 11.1094 3 10.25 3C9.39062 3 8.6875 3.70312 8.6875 4.5625V6.125H6.34375C5.04932 6.125 4 7.17432 4 8.46875V10.8125H25.875V8.46875C25.875 7.17432 24.8257 6.125 23.5312 6.125ZM4 25.6562C4 26.9502 5.0498 28 6.34375 28H23.5312C24.8252 28 25.875 26.9502 25.875 25.6562V12.375H4V25.6562Z" fill="#182930"/>
</g>
<defs>
<clipPath id="clip0_317_92">
<rect width="21.875" height="25" fill="white" transform="translate(4 3)"/>
</clipPath>
</defs>
</svg>
