<svg width="30" height="30" viewBox="0 0 30 30" fill="none" xmlns="http://www.w3.org/2000/svg">
<path d="M14.5 19.1913C13.6928 19.1913 12.8856 18.9235 12.1975 18.3871L2 10.4545V21.5312C2 22.8256 3.04932 23.8749 4.34375 23.8749H24.6563C25.9507 23.8749 27 22.8256 27 21.5312V10.4545L16.8025 18.3871C16.1144 18.9235 15.3072 19.1913 14.5 19.1913ZM2.79526 9.09491L13.1557 17.1542C13.9464 17.7692 15.0536 17.7692 15.8443 17.1542L26.2047 9.09491C26.7065 8.70458 27 8.10444 27 7.46869C27 6.17426 25.9507 5.12494 24.6563 5.12494H4.34375C3.04932 5.12494 2 6.17426 2 7.46869C2 8.10444 2.29346 8.70458 2.79526 9.09491Z" fill="#182930"/>
</svg>
