<svg width="30" height="31" viewBox="0 0 30 31" fill="none" xmlns="http://www.w3.org/2000/svg">
<rect y="0.5" width="30" height="30" rx="5" fill="#182930"/>
<path d="M15.0001 6.125C9.82122 6.125 5.62512 10.321 5.62512 15.5C5.62512 20.6788 9.82122 24.875 15.0001 24.875C20.179 24.875 24.3751 20.6788 24.3751 15.5C24.3751 10.321 20.179 6.125 15.0001 6.125ZM19.0089 16.3838L14.6339 20.7588C14.1456 21.2471 13.3546 21.2471 12.8663 20.7588C12.3781 20.2705 12.3781 19.4795 12.8663 18.9912L16.3575 15.5L12.8663 12.0088C12.3781 11.5205 12.3781 10.7295 12.8663 10.2412C13.3546 9.75293 14.1456 9.75293 14.6339 10.2412L19.0089 14.6162C19.2531 14.8604 19.3751 15.1802 19.3751 15.5C19.3751 15.8198 19.2531 16.1396 19.0089 16.3838Z" fill="white"/>
</svg>
