<svg width="30" height="30" viewBox="0 0 30 30" fill="none" xmlns="http://www.w3.org/2000/svg">
<g clip-path="url(#clip0_367_42)">
<path d="M23.5312 6.12499H21.1875V4.56249C21.1875 3.70312 20.4844 2.99999 19.625 2.99999C18.7656 2.99999 18.0625 3.70312 18.0625 4.56249V6.12499H11.8125V4.56249C11.8125 3.70312 11.1094 2.99999 10.25 2.99999C9.39062 2.99999 8.6875 3.70312 8.6875 4.56249V6.12499H6.34375C5.04932 6.12499 4 7.17431 4 8.46874V10.8125H25.875V8.46874C25.875 7.17431 24.8257 6.12499 23.5312 6.12499ZM4 25.6562C4 26.9502 5.0498 28 6.34375 28H23.5312C24.8252 28 25.875 26.9502 25.875 25.6562V12.375H4V25.6562Z" fill="white"/>
</g>
<defs>
<clipPath id="clip0_367_42">
<rect width="21.875" height="25" fill="white" transform="translate(4 2.99999)"/>
</clipPath>
</defs>
</svg>
