<svg width="154" height="70" viewBox="0 0 154 70" fill="none" xmlns="http://www.w3.org/2000/svg">
<path d="M26.7539 69.9998V12.8272H33.7443L34.1026 18.1708C35.4355 16.2238 37.1696 14.7635 39.3122 13.7864C41.4513 12.8129 43.7838 12.3262 46.3026 12.3262C50.0612 12.3262 53.1533 13.1708 55.579 14.8566C58.0046 16.5423 59.8105 18.8473 61 21.7678C62.1896 24.6884 62.7843 27.9561 62.7843 31.5674C62.7843 35.1787 62.1788 38.5753 60.9642 41.4743C59.7496 44.3734 57.8972 46.6533 55.3998 48.3176C52.9025 49.9819 49.7495 50.8122 45.9479 50.8122C44.1385 50.8122 42.4868 50.6225 40.9891 50.2431C39.4914 49.8638 38.1836 49.3054 37.0657 48.5681C35.9478 47.8308 34.9625 46.9647 34.1062 45.9661V64.0692L26.7575 69.9998H26.7539ZM45.0199 44.2589C47.5889 44.2589 49.6312 43.6791 51.154 42.5123C52.6768 41.3491 53.7696 39.8172 54.436 37.9167C55.1024 36.0162 55.4357 33.9511 55.4357 31.7177C55.4357 29.4844 55.0917 27.2617 54.4002 25.3398C53.7087 23.4142 52.5908 21.8716 51.0465 20.7084C49.4987 19.5452 47.442 18.9618 44.8766 18.9618C42.5441 18.9618 40.5699 19.5452 38.9539 20.7084C37.338 21.8716 36.1126 23.4285 35.2814 25.3756C34.4501 27.3226 34.0345 29.4378 34.0345 31.7177C34.0345 33.9976 34.4286 36.1737 35.2133 38.0957C35.998 40.0177 37.2126 41.528 38.8536 42.6197C40.4946 43.7149 42.5513 44.2589 45.0235 44.2589H45.0199Z" fill="white"/>
<path d="M26.7539 69.9998V12.8272H33.7443L34.1026 18.1708C35.4355 16.2238 37.1696 14.7635 39.3122 13.7864C41.4513 12.8129 43.7838 12.3262 46.3026 12.3262C50.0612 12.3262 53.1533 13.1708 55.579 14.8566C58.0046 16.5423 59.8105 18.8473 61 21.7678C62.1896 24.6884 62.7843 27.9561 62.7843 31.5674C62.7843 35.1787 62.1788 38.5753 60.9642 41.4743C59.7496 44.3734 57.8972 46.6533 55.3998 48.3176C52.9025 49.9819 49.7495 50.8122 45.9479 50.8122C44.1385 50.8122 42.4868 50.6225 40.9891 50.2431C39.4914 49.8638 38.1836 49.3054 37.0657 48.5681C35.9478 47.8308 34.9625 46.9647 34.1062 45.9661V64.0692L26.7575 69.9998H26.7539ZM45.0199 44.2589C47.5889 44.2589 49.6312 43.6791 51.154 42.5123C52.6768 41.3491 53.7696 39.8172 54.436 37.9167C55.1024 36.0162 55.4357 33.9511 55.4357 31.7177C55.4357 29.4844 55.0917 27.2617 54.4002 25.3398C53.7087 23.4142 52.5908 21.8716 51.0465 20.7084C49.4987 19.5452 47.442 18.9618 44.8766 18.9618C42.5441 18.9618 40.5699 19.5452 38.9539 20.7084C37.338 21.8716 36.1126 23.4285 35.2814 25.3756C34.4501 27.3226 34.0345 29.4378 34.0345 31.7177C34.0345 33.9976 34.4286 36.1737 35.2133 38.0957C35.998 40.0177 37.2126 41.528 38.8536 42.6197C40.4946 43.7149 42.5513 44.2589 45.0235 44.2589H45.0199Z" fill="white"/>
<path d="M76.6258 50.8124C74.9132 50.8124 73.2614 50.5869 71.667 50.1359C70.0726 49.685 68.6573 48.9942 67.4212 48.0672C66.185 47.1402 65.1961 45.977 64.4616 44.574C63.7235 43.1746 63.3545 41.521 63.3545 39.6205C63.3545 37.3407 63.7952 35.4509 64.673 33.9548C65.5509 32.4588 66.7297 31.2956 68.2058 30.4616C69.6784 29.6313 71.3804 29.0371 73.308 28.6792C75.2356 28.3213 77.2421 28.1459 79.3382 28.1459H88.5428C88.5428 26.292 88.2562 24.6671 87.6865 23.2641C87.1168 21.8646 86.2246 20.7694 85.01 19.9856C83.7954 19.2018 82.1902 18.8081 80.1945 18.8081C79.0049 18.8081 77.8763 18.9405 76.805 19.2018C75.7337 19.4631 74.82 19.8782 74.0568 20.4473C73.2973 21.0164 72.7741 21.7787 72.4875 22.7272H64.7805C65.0672 20.9233 65.7085 19.3664 66.7082 18.06C67.7078 16.7537 68.9439 15.6728 70.4165 14.8174C71.8891 13.962 73.4728 13.3321 75.1604 12.9276C76.848 12.5232 78.5714 12.3228 80.3342 12.3228C85.7553 12.3228 89.6679 13.9011 92.0721 17.0615C94.4727 20.2218 95.6765 24.5561 95.6765 30.0679V50.3793H89.3275L89.0409 45.6048C87.9445 47.0794 86.651 48.1961 85.1533 48.9548C83.6556 49.7172 82.1687 50.2147 80.6925 50.4509C79.2163 50.6871 77.862 50.8052 76.6258 50.8052V50.8124ZM77.7688 44.6134C79.9079 44.6134 81.7889 44.2447 83.4048 43.5074C85.0208 42.7701 86.282 41.7036 87.1849 40.3006C88.0878 38.9011 88.5392 37.2476 88.5392 35.3471V33.7794H81.8319C80.4525 33.7794 79.1088 33.8152 77.8011 33.8868C76.4933 33.9584 75.3037 34.1481 74.2324 34.4559C73.1611 34.7637 72.3048 35.2755 71.6634 35.9878C71.0221 36.7 70.6996 37.7236 70.6996 39.0515C70.6996 40.3793 71.0328 41.3815 71.6992 42.1868C72.3657 42.9956 73.2435 43.6005 74.3399 44.0049C75.4327 44.4094 76.5757 44.6098 77.7652 44.6098L77.7688 44.6134Z" fill="white"/>
<path d="M76.6258 50.8124C74.9132 50.8124 73.2614 50.5869 71.667 50.1359C70.0726 49.685 68.6573 48.9942 67.4212 48.0672C66.185 47.1402 65.1961 45.977 64.4616 44.574C63.7235 43.1746 63.3545 41.521 63.3545 39.6205C63.3545 37.3407 63.7952 35.4509 64.673 33.9548C65.5509 32.4588 66.7297 31.2956 68.2058 30.4616C69.6784 29.6313 71.3804 29.0371 73.308 28.6792C75.2356 28.3213 77.2421 28.1459 79.3382 28.1459H88.5428C88.5428 26.292 88.2562 24.6671 87.6865 23.2641C87.1168 21.8646 86.2246 20.7694 85.01 19.9856C83.7954 19.2018 82.1902 18.8081 80.1945 18.8081C79.0049 18.8081 77.8763 18.9405 76.805 19.2018C75.7337 19.4631 74.82 19.8782 74.0568 20.4473C73.2973 21.0164 72.7741 21.7787 72.4875 22.7272H64.7805C65.0672 20.9233 65.7085 19.3664 66.7082 18.06C67.7078 16.7537 68.9439 15.6728 70.4165 14.8174C71.8891 13.962 73.4728 13.3321 75.1604 12.9276C76.848 12.5232 78.5714 12.3228 80.3342 12.3228C85.7553 12.3228 89.6679 13.9011 92.0721 17.0615C94.4727 20.2218 95.6765 24.5561 95.6765 30.0679V50.3793H89.3275L89.0409 45.6048C87.9445 47.0794 86.651 48.1961 85.1533 48.9548C83.6556 49.7172 82.1687 50.2147 80.6925 50.4509C79.2163 50.6871 77.862 50.8052 76.6258 50.8052V50.8124ZM77.7688 44.6134C79.9079 44.6134 81.7889 44.2447 83.4048 43.5074C85.0208 42.7701 86.282 41.7036 87.1849 40.3006C88.0878 38.9011 88.5392 37.2476 88.5392 35.3471V33.7794H81.8319C80.4525 33.7794 79.1088 33.8152 77.8011 33.8868C76.4933 33.9584 75.3037 34.1481 74.2324 34.4559C73.1611 34.7637 72.3048 35.2755 71.6634 35.9878C71.0221 36.7 70.6996 37.7236 70.6996 39.0515C70.6996 40.3793 71.0328 41.3815 71.6992 42.1868C72.3657 42.9956 73.2435 43.6005 74.3399 44.0049C75.4327 44.4094 76.5757 44.6098 77.7652 44.6098L77.7688 44.6134Z" fill="white"/>
<path d="M98.8115 50.3865V5.93057L106.16 0V50.3865H98.8115Z" fill="white"/>
<path d="M98.8115 50.3865V5.93057L106.16 0V50.3865H98.8115Z" fill="white"/>
<path d="M125.637 50.8126C120.356 50.8126 116.325 49.4239 113.544 46.643C110.76 43.862 109.37 39.6243 109.37 33.9228V12.8276H116.719V33.4969C116.719 35.7303 117.041 37.6558 117.683 39.27C118.324 40.8842 119.309 42.119 120.642 42.9744C121.975 43.8298 123.663 44.2557 125.708 44.2557C127.754 44.2557 129.571 43.8155 130.882 42.9386C132.19 42.0617 133.14 40.8126 133.734 39.1984C134.329 37.5843 134.627 35.6838 134.627 33.4969V12.8276H141.975V33.9228C141.975 39.721 140.56 43.9837 137.729 46.7145C134.899 49.449 130.868 50.8126 125.637 50.8126Z" fill="white"/>
<path d="M125.637 50.8126C120.356 50.8126 116.325 49.4239 113.544 46.643C110.76 43.862 109.37 39.6243 109.37 33.9228V12.8276H116.719V33.4969C116.719 35.7303 117.041 37.6558 117.683 39.27C118.324 40.8842 119.309 42.119 120.642 42.9744C121.975 43.8298 123.663 44.2557 125.708 44.2557C127.754 44.2557 129.571 43.8155 130.882 42.9386C132.19 42.0617 133.14 40.8126 133.734 39.1984C134.329 37.5843 134.627 35.6838 134.627 33.4969V12.8276H141.975V33.9228C141.975 39.721 140.56 43.9837 137.729 46.7145C134.899 49.449 130.868 50.8126 125.637 50.8126Z" fill="white"/>
<path d="M149.632 8.78688C148.74 8.78688 147.959 8.61508 147.296 8.27149C146.63 7.92789 146.121 7.43398 145.77 6.79332C145.419 6.15266 145.243 5.38673 145.243 4.49554C145.243 3.60434 145.422 2.80262 145.784 2.13691C146.142 1.4712 146.651 0.959389 147.311 0.601479C147.97 0.243569 148.744 0.0610352 149.636 0.0610352C150.528 0.0610352 151.323 0.243569 151.972 0.612216C152.621 0.980863 153.122 1.49625 153.477 2.16197C153.828 2.82768 154.004 3.60434 154.004 4.49554C154.004 5.38673 153.828 6.15266 153.477 6.79332C153.126 7.43398 152.624 7.92789 151.972 8.27149C151.323 8.61508 150.542 8.78688 149.636 8.78688H149.632ZM149.632 7.89568C150.696 7.89568 151.535 7.59504 152.144 6.99375C152.753 6.39246 153.061 5.55853 153.061 4.49554C153.061 3.43255 152.76 2.54851 152.158 1.88995C151.556 1.2314 150.714 0.905702 149.632 0.905702C148.55 0.905702 147.701 1.23498 147.085 1.88995C146.465 2.54851 146.157 3.41465 146.157 4.49554C146.157 5.57643 146.465 6.39246 147.085 6.99375C147.705 7.59504 148.554 7.89568 149.632 7.89568ZM148.013 6.58215V2.1226H149.89C150.36 2.1226 150.743 2.23355 151.04 2.45187C151.338 2.6702 151.488 3.03169 151.488 3.53276C151.488 3.86204 151.413 4.14121 151.266 4.37743C151.116 4.61365 150.872 4.76755 150.524 4.84629L151.7 6.58215H150.689L149.586 4.93935H148.858V6.58215H148.013ZM148.855 4.18774H149.887C150.105 4.18774 150.288 4.13763 150.438 4.03383C150.585 3.93362 150.661 3.7654 150.661 3.52918C150.661 3.31086 150.585 3.15338 150.438 3.06032C150.288 2.96726 150.123 2.92073 149.933 2.92073H148.855V4.18774Z" fill="white"/>
<path d="M0 50.8128L23.5438 31.8149H0V50.8128Z" fill="white"/>
<path d="M0 31.8147L23.5438 12.8169H0V31.8147Z" fill="white"/>
</svg>
