<svg width="132" height="61" viewBox="0 0 132 61" fill="none" xmlns="http://www.w3.org/2000/svg">
<path d="M22.8877 60.5V11.495H28.8676L29.1741 16.0752C30.3143 14.4063 31.7978 13.1547 33.6307 12.3172C35.4606 11.4827 37.4559 11.0655 39.6107 11.0655C42.8259 11.0655 45.4711 11.7895 47.5461 13.2344C49.6212 14.6794 51.166 16.655 52.1836 19.1583C53.2012 21.6617 53.71 24.4626 53.71 27.558C53.71 30.6534 53.192 33.5647 52.1529 36.0496C51.1139 38.5346 49.5292 40.4887 47.3929 41.9153C45.2565 43.3418 42.5593 44.0535 39.3072 44.0535C37.7594 44.0535 36.3464 43.8909 35.0652 43.5657C33.784 43.2406 32.6652 42.762 31.7089 42.13C30.7526 41.498 29.9098 40.7556 29.1772 39.8997V55.4166L22.8908 60.5H22.8877ZM38.5134 38.4364C40.711 38.4364 42.4581 37.9394 43.7608 36.9393C45.0634 35.9423 45.9983 34.6292 46.5684 33.0002C47.1385 31.3712 47.4235 29.6011 47.4235 27.6868C47.4235 25.7725 47.1293 23.8674 46.5377 22.22C45.9462 20.5695 44.9899 19.2473 43.6688 18.2503C42.3447 17.2532 40.5854 16.7532 38.3908 16.7532C36.3954 16.7532 34.7066 17.2532 33.3242 18.2503C31.9419 19.2473 30.8936 20.5818 30.1825 22.2507C29.4715 23.9196 29.1159 25.7326 29.1159 27.6868C29.1159 29.641 29.4531 31.5062 30.1243 33.1536C30.7956 34.801 31.8346 36.0957 33.2384 37.0313C34.6422 37.9701 36.4016 38.4364 38.5165 38.4364H38.5134Z" fill="#182930"/>
<path d="M22.8877 60.5V11.495H28.8676L29.1741 16.0752C30.3143 14.4063 31.7978 13.1547 33.6307 12.3172C35.4606 11.4827 37.4559 11.0655 39.6107 11.0655C42.8259 11.0655 45.4711 11.7895 47.5461 13.2344C49.6212 14.6794 51.166 16.655 52.1836 19.1583C53.2012 21.6617 53.71 24.4626 53.71 27.558C53.71 30.6534 53.192 33.5647 52.1529 36.0496C51.1139 38.5346 49.5292 40.4887 47.3929 41.9153C45.2565 43.3418 42.5593 44.0535 39.3072 44.0535C37.7594 44.0535 36.3464 43.8909 35.0652 43.5657C33.784 43.2406 32.6652 42.762 31.7089 42.13C30.7526 41.498 29.9098 40.7556 29.1772 39.8997V55.4166L22.8908 60.5H22.8877ZM38.5134 38.4364C40.711 38.4364 42.4581 37.9394 43.7608 36.9393C45.0634 35.9423 45.9983 34.6292 46.5684 33.0002C47.1385 31.3712 47.4235 29.6011 47.4235 27.6868C47.4235 25.7725 47.1293 23.8674 46.5377 22.22C45.9462 20.5695 44.9899 19.2473 43.6688 18.2503C42.3447 17.2532 40.5854 16.7532 38.3908 16.7532C36.3954 16.7532 34.7066 17.2532 33.3242 18.2503C31.9419 19.2473 30.8936 20.5818 30.1825 22.2507C29.4715 23.9196 29.1159 25.7326 29.1159 27.6868C29.1159 29.641 29.4531 31.5062 30.1243 33.1536C30.7956 34.801 31.8346 36.0957 33.2384 37.0313C34.6422 37.9701 36.4016 38.4364 38.5165 38.4364H38.5134Z" fill="#182930"/>
<path d="M65.5503 44.0535C64.0852 44.0535 62.6722 43.8602 61.3082 43.4737C59.9443 43.0871 58.7336 42.495 57.6761 41.7005C56.6187 40.9059 55.7727 39.9089 55.1444 38.7063C54.513 37.5068 54.1973 36.0895 54.1973 34.4605C54.1973 32.5063 54.5743 30.8865 55.3252 29.6042C56.0761 28.3218 57.0846 27.3248 58.3474 26.61C59.6071 25.8982 61.063 25.389 62.712 25.0822C64.361 24.7754 66.0774 24.6251 67.8705 24.6251H75.7447C75.7447 23.036 75.4995 21.6432 75.0121 20.4406C74.5248 19.2411 73.7616 18.3024 72.7225 17.6305C71.6834 16.9587 70.3103 16.6212 68.6031 16.6212C67.5855 16.6212 66.62 16.7347 65.7035 16.9587C64.7871 17.1826 64.0055 17.5385 63.3526 18.0263C62.7028 18.5141 62.2553 19.1675 62.0101 19.9805H55.4172C55.6624 18.4343 56.211 17.0998 57.0662 15.9801C57.9213 14.8603 58.9788 13.9338 60.2385 13.2006C61.4982 12.4674 62.853 11.9275 64.2966 11.5808C65.7403 11.2342 67.2146 11.0624 68.7226 11.0624C73.36 11.0624 76.7071 12.4153 78.7637 15.1241C80.8173 17.833 81.8472 21.5481 81.8472 26.2725V43.6823H76.4159L76.1707 39.5898C75.2328 40.8538 74.1263 41.8109 72.8451 42.4613C71.5639 43.1147 70.2919 43.5412 69.0291 43.7436C67.7663 43.9461 66.6077 44.0473 65.5503 44.0473V44.0535ZM66.528 38.7401C68.3579 38.7401 69.967 38.4241 71.3494 37.7921C72.7317 37.1601 73.8106 36.2459 74.583 35.0434C75.3554 33.8438 75.7416 32.4265 75.7416 30.7975V29.4538H70.0038C68.8237 29.4538 67.6743 29.4845 66.5556 29.5459C65.4368 29.6072 64.4192 29.7698 63.5028 30.0336C62.5863 30.2975 61.8538 30.7362 61.3051 31.3467C60.7565 31.9572 60.4806 32.8345 60.4806 33.9727C60.4806 35.1108 60.7657 35.9698 61.3358 36.6601C61.9059 37.3534 62.6568 37.8719 63.5947 38.2185C64.5296 38.5652 65.5073 38.737 66.5249 38.737L66.528 38.7401Z" fill="#182930"/>
<path d="M65.5503 44.0535C64.0852 44.0535 62.6722 43.8602 61.3082 43.4737C59.9443 43.0871 58.7336 42.495 57.6761 41.7005C56.6187 40.9059 55.7727 39.9089 55.1444 38.7063C54.513 37.5068 54.1973 36.0895 54.1973 34.4605C54.1973 32.5063 54.5743 30.8865 55.3252 29.6042C56.0761 28.3218 57.0846 27.3248 58.3474 26.61C59.6071 25.8982 61.063 25.389 62.712 25.0822C64.361 24.7754 66.0774 24.6251 67.8705 24.6251H75.7447C75.7447 23.036 75.4995 21.6432 75.0121 20.4406C74.5248 19.2411 73.7616 18.3024 72.7225 17.6305C71.6834 16.9587 70.3103 16.6212 68.6031 16.6212C67.5855 16.6212 66.62 16.7347 65.7035 16.9587C64.7871 17.1826 64.0055 17.5385 63.3526 18.0263C62.7028 18.5141 62.2553 19.1675 62.0101 19.9805H55.4172C55.6624 18.4343 56.211 17.0998 57.0662 15.9801C57.9213 14.8603 58.9788 13.9338 60.2385 13.2006C61.4982 12.4674 62.853 11.9275 64.2966 11.5808C65.7403 11.2342 67.2146 11.0624 68.7226 11.0624C73.36 11.0624 76.7071 12.4153 78.7637 15.1241C80.8173 17.833 81.8472 21.5481 81.8472 26.2725V43.6823H76.4159L76.1707 39.5898C75.2328 40.8538 74.1263 41.8109 72.8451 42.4613C71.5639 43.1147 70.2919 43.5412 69.0291 43.7436C67.7663 43.9461 66.6077 44.0473 65.5503 44.0473V44.0535ZM66.528 38.7401C68.3579 38.7401 69.967 38.4241 71.3494 37.7921C72.7317 37.1601 73.8106 36.2459 74.583 35.0434C75.3554 33.8438 75.7416 32.4265 75.7416 30.7975V29.4538H70.0038C68.8237 29.4538 67.6743 29.4845 66.5556 29.5459C65.4368 29.6072 64.4192 29.7698 63.5028 30.0336C62.5863 30.2975 61.8538 30.7362 61.3051 31.3467C60.7565 31.9572 60.4806 32.8345 60.4806 33.9727C60.4806 35.1108 60.7657 35.9698 61.3358 36.6601C61.9059 37.3534 62.6568 37.8719 63.5947 38.2185C64.5296 38.5652 65.5073 38.737 66.5249 38.737L66.528 38.7401Z" fill="#182930"/>
<path d="M84.5293 43.6885V5.58334L90.8157 0.5V43.6885H84.5293Z" fill="#182930"/>
<path d="M84.5293 43.6885V5.58334L90.8157 0.5V43.6885H84.5293Z" fill="#182930"/>
<path d="M107.477 44.0536C102.959 44.0536 99.5108 42.8633 97.1323 40.4796C94.7508 38.0959 93.5615 34.4637 93.5615 29.5767V11.4951H99.848V29.2116C99.848 31.1259 100.124 32.7764 100.672 34.16C101.221 35.5435 102.064 36.6019 103.204 37.3351C104.344 38.0683 105.788 38.4334 107.538 38.4334C109.288 38.4334 110.842 38.0561 111.964 37.3044C113.083 36.5528 113.895 35.4822 114.404 34.0986C114.913 32.715 115.167 31.086 115.167 29.2116V11.4951H121.454V29.5767C121.454 34.5465 120.243 38.2002 117.821 40.541C115.4 42.8848 111.952 44.0536 107.477 44.0536Z" fill="#182930"/>
<path d="M107.477 44.0536C102.959 44.0536 99.5108 42.8633 97.1323 40.4796C94.7508 38.0959 93.5615 34.4637 93.5615 29.5767V11.4951H99.848V29.2116C99.848 31.1259 100.124 32.7764 100.672 34.16C101.221 35.5435 102.064 36.6019 103.204 37.3351C104.344 38.0683 105.788 38.4334 107.538 38.4334C109.288 38.4334 110.842 38.0561 111.964 37.3044C113.083 36.5528 113.895 35.4822 114.404 34.0986C114.913 32.715 115.167 31.086 115.167 29.2116V11.4951H121.454V29.5767C121.454 34.5465 120.243 38.2002 117.821 40.541C115.4 42.8848 111.952 44.0536 107.477 44.0536Z" fill="#182930"/>
<path d="M128.003 8.03135C127.24 8.03135 126.571 7.8841 126.004 7.58959C125.434 7.29508 124.999 6.87173 124.699 6.32259C124.398 5.77346 124.248 5.11695 124.248 4.35306C124.248 3.58918 124.401 2.902 124.711 2.33139C125.017 1.76078 125.453 1.32208 126.017 1.0153C126.581 0.708521 127.243 0.552063 128.006 0.552063C128.769 0.552063 129.449 0.708521 130.004 1.0245C130.559 1.34049 130.988 1.78225 131.292 2.35286C131.592 2.92347 131.742 3.58918 131.742 4.35306C131.742 5.11695 131.592 5.77346 131.292 6.32259C130.991 6.87173 130.562 7.29508 130.004 7.58959C129.449 7.8841 128.781 8.03135 128.006 8.03135H128.003ZM128.003 7.26747C128.913 7.26747 129.63 7.00978 130.151 6.49439C130.672 5.979 130.936 5.2642 130.936 4.35306C130.936 3.44193 130.679 2.68418 130.164 2.11971C129.649 1.55523 128.928 1.27606 128.003 1.27606C127.077 1.27606 126.351 1.5583 125.823 2.11971C125.293 2.68418 125.03 3.42659 125.03 4.35306C125.03 5.27954 125.293 5.979 125.823 6.49439C126.354 7.00978 127.08 7.26747 128.003 7.26747ZM126.617 6.14159V2.31911H128.223C128.625 2.31911 128.953 2.41422 129.207 2.60135C129.462 2.78849 129.59 3.09834 129.59 3.52783C129.59 3.81006 129.526 4.04935 129.4 4.25183C129.272 4.4543 129.063 4.58622 128.766 4.65371L129.771 6.14159H128.907L127.963 4.73347H127.341V6.14159H126.617ZM127.338 4.08923H128.22C128.407 4.08923 128.564 4.04629 128.692 3.95732C128.818 3.87142 128.882 3.72723 128.882 3.52476C128.882 3.33762 128.818 3.20264 128.692 3.12288C128.564 3.04311 128.423 3.00323 128.26 3.00323H127.338V4.08923Z" fill="#182930"/>
<path d="M0 44.0535L20.1405 27.7697H0V44.0535Z" fill="#5881BF"/>
<path d="M0 27.7696L20.1405 11.4857H0V27.7696Z" fill="#5881BF"/>
</svg>
