<svg width="124" height="93" viewBox="0 0 124 93" fill="none" xmlns="http://www.w3.org/2000/svg">
<path d="M62.3535 69.7827C58.3728 69.7827 54.392 68.4621 50.9981 65.8168L0.707092 26.6956V81.3226C0.707092 87.7064 5.88202 92.8813 12.2658 92.8813H112.441C118.825 92.8813 124 87.7064 124 81.3226V26.6956L73.709 65.8168C70.3151 68.4621 66.3343 69.7827 62.3535 69.7827ZM4.62911 19.9904L55.7239 59.7365C59.6233 62.7697 65.0838 62.7697 68.9832 59.7365L120.078 19.9904C122.553 18.0654 124 15.1056 124 11.9703C124 5.58655 118.825 0.411621 112.441 0.411621H12.2658C5.88202 0.411621 0.707092 5.58655 0.707092 11.9703C0.707092 15.1056 2.15434 18.0654 4.62911 19.9904Z" fill="#F1FFF5"/>
</svg>
