<svg width="40" height="40" viewBox="0 0 40 40" fill="none" xmlns="http://www.w3.org/2000/svg">
<g clip-path="url(#clip0_68_1168)">
<path d="M13.6564 25.2148L18.0737 20.7975V31.5585C18.0737 32.6234 18.9353 33.485 20.0001 33.485C21.065 33.485 21.9266 32.6234 21.9266 31.5585V20.7975L26.3439 25.2148C26.7201 25.591 27.213 25.7792 27.7059 25.7792C28.1989 25.7792 28.6917 25.591 29.068 25.2148C29.8205 24.4623 29.8205 23.2432 29.068 22.4907L21.3622 14.7848C20.6097 14.0323 19.3906 14.0323 18.6381 14.7848L10.9322 22.4907C10.1797 23.2432 10.1797 24.4623 10.9322 25.2148C11.6848 25.9673 12.9039 25.9673 13.6564 25.2148ZM10.3679 10.3676H29.6324C30.6972 10.3676 31.5588 9.50595 31.5588 8.4411C31.5588 7.37625 30.6972 6.51465 29.6324 6.51465H10.3679C9.30301 6.51465 8.44141 7.37625 8.44141 8.4411C8.44141 9.50595 9.30301 10.3676 10.3679 10.3676Z" fill="#182930"/>
</g>
<defs>
<clipPath id="clip0_68_1168">
<rect width="23.1174" height="30.8232" fill="white" transform="translate(8.44141 4.58838)"/>
</clipPath>
</defs>
</svg>
