<svg width="416" height="80" viewBox="0 0 416 80" fill="none" xmlns="http://www.w3.org/2000/svg">
<path d="M413.713 60.6897C413.713 59.9015 412.925 59.5862 412.216 59.5862H410.876V63.5271H411.585V61.9507H412.137L413.004 63.5271H413.871L412.846 61.7931C413.319 61.7143 413.713 61.2414 413.713 60.7685V60.6897ZM411.585 61.3202V60.2167H412.216C412.61 60.2167 413.004 60.2956 413.004 60.7685C413.004 61.2414 412.531 61.3202 412.137 61.3202H411.585ZM412.216 58.1675C410.324 58.2463 408.748 59.8227 408.826 61.7143C408.905 63.6059 410.482 65.1823 412.373 65.1034C414.265 65.0246 415.841 63.4483 415.762 61.5567C415.762 59.665 414.186 58.0887 412.294 58.0887C412.294 58.0887 412.216 58.0887 412.216 58.1675ZM412.216 64.4729C410.56 64.4729 409.221 63.133 409.221 61.4778C409.221 59.8227 410.56 58.4828 412.216 58.4828C413.871 58.4828 415.211 59.8227 415.211 61.4778V61.5567C415.211 63.2118 413.871 64.5517 412.216 64.5517V64.4729ZM186.797 58.7192C181.674 58.7192 179.073 54.069 179.073 49.6552C179.073 45.2414 181.91 40.8276 186.56 40.8276C188.767 40.8276 191.526 41.931 192.629 43.5074L197.989 38.069C194.915 35.1527 190.817 33.4975 186.56 33.6552C177.102 33.6552 170.245 40.4335 170.245 49.734C170.245 59.1921 177.024 65.8916 186.797 65.8916C191.368 65.8916 195.625 64.5517 198.147 61.7931L192.866 56.1182C191.29 57.7734 189.083 58.7192 186.797 58.7192ZM156.452 65.0246H164.964V34.5222H156.531L156.452 65.0246ZM141.083 51.2315C141.083 54.7783 138.718 58.6404 134.462 58.6404C131.073 58.6404 129.26 56.2759 129.26 51.3103V34.601H120.826V53.5172C120.826 59.8227 123.979 65.9704 132.413 65.9704C136.354 65.9704 139.664 62.8177 141.319 60.4532H141.477V65.1034H149.516V34.5222H141.083V51.2315ZM105.615 38.3842H105.457C104.275 37.0443 101.043 33.6552 95.8413 33.6552C87.2501 33.6552 80.6294 40.3547 80.6294 49.6552C80.6294 59.1133 86.7772 65.8916 95.4472 65.8916C99.2304 65.8128 102.698 64.1576 105.221 61.3202H105.378V80H113.733V34.5222H105.693L105.615 38.3842ZM97.4964 58.7192C92.2945 58.7192 89.2994 54.1478 89.2994 49.6552C89.2994 45.3202 91.9792 40.7488 97.4964 40.7488C102.462 40.7488 105.536 45.4778 105.536 49.734C105.536 53.9902 102.541 58.7192 97.4964 58.7192ZM289.26 33.6552C279.723 33.6552 272.708 40.3547 272.708 49.6552C272.708 59.2709 279.802 65.9704 289.26 65.9704C298.718 65.9704 305.812 59.1921 305.812 49.6552C305.812 40.3547 298.876 33.6552 289.26 33.6552ZM289.26 58.7192C283.743 58.7192 281.299 53.9901 281.299 49.6552C281.299 45.3202 283.822 40.7488 289.26 40.7488C294.698 40.7488 297.378 45.3202 297.378 49.6552C297.378 53.9901 294.856 58.7192 289.26 58.7192ZM394.56 46.266C390.225 45.2414 388.649 44.6896 388.649 42.8768C388.649 40.5123 391.802 39.9606 393.142 39.9606C395.743 39.9606 398.659 41.5369 399.841 42.9557L404.807 38.2266C402.442 35.3892 397.95 33.734 393.221 33.734C387.073 33.734 380.689 36.8079 380.689 43.5862C380.689 49.4975 385.339 51.2315 389.831 52.335C394.56 53.4384 396.294 54.2266 396.294 56.197C396.294 58.9557 393.142 59.4286 391.959 59.4286C389.043 59.2709 386.285 58.0099 384.314 55.803L379.191 61.0049C381.95 64.1576 386.757 65.9704 391.644 65.9704C399.92 65.9704 404.807 62.0296 404.807 55.5665C404.807 49.4187 398.817 47.2906 394.56 46.266ZM378.56 34.5222H367.684L356.807 47.133H356.649V17.734H348.216V65.0246H356.649V50.0493H356.807L368.078 65.0246H379.112L366.028 48.3941L378.56 34.5222ZM253.713 33.734C249.772 33.734 247.014 35.3103 244.255 37.8325H244.176V17.734H235.743V65.0246H243.782V60.6897H243.94C246.068 63.9212 249.615 65.8128 253.477 65.8128C262.147 65.8128 268.767 59.0345 268.767 49.6552C268.767 40.3547 262.304 33.6552 253.713 33.6552V33.734ZM252.058 58.7192C246.935 58.7192 243.94 54.1478 243.94 49.734C243.94 45.3202 247.092 40.7488 252.058 40.7488C257.496 40.7488 260.176 45.3202 260.176 49.6552C260.176 54.1478 257.26 58.7192 252.058 58.7192ZM232.59 34.5222H221.713L210.836 47.133H210.679V17.734H202.245V65.0246H210.679V50.0493H210.836L222.107 65.0246H233.142L220.137 48.3941L232.59 34.5222ZM326.225 33.734C316.61 33.734 309.674 40.4335 309.674 49.6552C309.674 59.2709 316.767 65.9704 326.225 65.9704C335.684 65.9704 342.777 59.1921 342.777 49.6552C342.777 40.3547 335.762 33.6552 326.225 33.6552V33.734ZM326.225 58.7192C320.708 58.7192 318.186 53.9901 318.186 49.6552C318.186 45.3202 320.708 40.7488 326.225 40.7488C331.743 40.7488 334.186 45.3202 334.186 49.6552C334.186 53.9901 331.664 58.7192 326.225 58.7192Z" fill="black"/>
<path d="M115.309 8.11823C116.649 8.11823 117.674 7.0936 117.674 5.7537C117.674 4.4138 116.649 3.38916 115.309 3.38916C113.969 3.38916 112.945 4.4138 112.945 5.7537C112.945 7.0936 113.969 8.11823 115.309 8.11823ZM101.359 9.69458C99.3881 9.69458 97.4964 10.798 96.6294 12.6108H96.4718V10.0887H92.8462V25.6158H96.7083V17.1034C96.7083 15.0542 97.8905 12.9261 100.334 12.9261C102.777 12.9261 103.25 15.2118 103.25 17.0246V25.6946H107.112V15.8424C107.112 12.6897 105.457 9.53695 101.359 9.53695V9.69458ZM84.9644 25.6158H88.9053V10.0887H84.9644V25.6158ZM155.506 8.03941C156.846 8.03941 157.871 7.01478 157.871 5.67487C157.871 4.33497 156.846 3.31034 155.506 3.31034C154.166 3.31034 153.142 4.33497 153.142 5.67487C153.142 7.01478 154.166 8.03941 155.506 8.03941ZM149.201 10.0887V13.5566H153.536V25.6158H157.477V13.5566H161.812V10.0887H149.201ZM142.58 25.6158H146.521V10.0887H142.58V25.6158ZM109.083 13.5566H113.418V25.6158H117.359V13.5566H121.693V10.0887H109.083V13.5566ZM134.777 18.6798C134.777 20.7291 133.595 22.8571 131.152 22.8571C128.708 22.8571 128.235 20.4926 128.235 18.6798V10.0887H124.294V19.7833C124.294 22.936 126.028 26.0887 130.048 26.0887C132.097 26.0887 133.91 24.9852 134.856 23.1724H134.935V25.6946H138.639V10.0887H134.698L134.777 18.6798Z" fill="black"/>
<path d="M35.7033 70.936C55.2918 70.936 71.1713 55.0564 71.1713 35.468C71.1713 15.8796 55.2918 0 35.7033 0C16.1149 0 0.235352 15.8796 0.235352 35.468C0.235352 55.0564 16.1149 70.936 35.7033 70.936Z" fill="#2CA01C"/>
<path d="M10.0876 35.468C10.0876 43.1133 16.2354 49.2611 23.8807 49.2611H25.8511V44.1379H23.8807C19.0728 44.1379 15.2107 40.2759 15.2107 35.468C15.2107 30.6601 19.0728 26.798 23.8807 26.798H28.6097V53.5961C28.6097 56.4335 30.8954 58.7192 33.7329 58.7192V21.6749H23.8807C16.2354 21.6749 10.0876 27.8227 10.0876 35.468ZM47.526 21.6749H45.5555V26.798H47.526C52.3339 26.798 56.1959 30.6601 56.1959 35.468C56.1959 40.2759 52.3339 44.1379 47.526 44.1379H42.7969V17.3399C42.7969 14.5025 40.5112 12.2167 37.6738 12.2167V49.2611H47.526C55.1713 49.2611 61.3191 43.1133 61.3191 35.468C61.3191 27.8227 55.1713 21.6749 47.526 21.6749Z" fill="white"/>
</svg>
